# xmcd
#
# Track frame offsets:
#	150
#	20907
#	31222
#	49940
#	67892
#	87815
#	105890
#	122892
#	139767
#	156307
#	167762
#	187552
#	205095
#	225412
#
# Disc length: 3200 seconds
#
# Revision: 0
# Processed by: cddbd v1.4PL0 Copyright (c) Steve Scherf et al.
# Submitted via: dBpowerAMP V4.0
#
DISCID=ab0c7e0e
DTITLE=Ricardo Henrique - Violão apaixonado
DYEAR=1900
DGENRE=
TTITLE0=Ave maria(Franz Schubert)
TTITLE1=Sons de carrilhões
TTITLE2=Paria na 4a. corda
TTITLE3=Ave maria(Bach-Gounod)
TTITLE4=Nunca
TTITLE5=Pedacinhos do céu
TTITLE6=Segredo
TTITLE7=Abismo de rosas
TTITLE8=Canção de amor
TTITLE9=Le lac de come
TTITLE10=Ùltimo desejo
TTITLE11=Quem há de dizer
TTITLE12=Gotas de lágrimas
TTITLE13=Pinho chorão
EXTD=
EXTT0=
EXTT1=
EXTT2=
EXTT3=
EXTT4=
EXTT5=
EXTT6=
EXTT7=
EXTT8=
EXTT9=
EXTT10=
EXTT11=
EXTT12=
EXTT13=
PLAYORDER=
